<svg width="62" height="76" viewBox="0 0 62 76" fill="none" xmlns="http://www.w3.org/2000/svg">
<path fill-rule="evenodd" clip-rule="evenodd" d="M49.7839 4.59453C49.7584 3.7774 49.7635 2.98193 49.789 2.23515C49.8758 -0.0105806 51.2535 -0.00284319 51.3606 0.000249041C51.5851 0.00797962 52.5853 0.103828 52.8252 1.8548C52.8405 1.95917 52.8762 2.71521 52.8864 3.00665C52.9068 3.62819 52.917 4.23893 52.8609 4.85196C52.9119 5.89172 53.0241 6.96164 53.2385 7.96816C53.5497 9.45398 54.0549 10.8254 54.9683 11.5559C56.6011 12.8701 58.7493 12.8168 60.5455 13.1507C61.2956 13.2899 61.8671 14.2376 61.8926 15.3818C61.913 16.5267 61.3824 17.5254 60.6374 17.7334C58.3922 18.3627 55.8102 21.4557 54.1671 23.9465C53.6619 24.7118 53.0956 26.5347 52.4628 27.702C51.9526 28.6374 51.3861 29.2644 50.8504 29.5133C50.6411 29.6099 49.4829 29.9624 48.9624 28.1458C48.8195 27.6355 48.3143 24.9638 48.2684 24.6593C47.9929 22.9137 47.6 21.3544 46.8295 19.966C46.161 18.7623 45.3497 17.711 44.3751 17.1281C43.9822 16.8931 43.5739 16.7145 43.1657 16.5305C43.0228 16.5043 42.6197 16.427 42.4769 16.3535C42.186 16.2066 41.9717 15.9763 41.8186 15.7467C41.5277 15.3122 41.3797 14.7935 41.3542 14.2029C41.3338 13.8133 41.3696 13.351 41.5532 12.8384C41.691 12.4743 42.0023 11.9262 42.5636 11.5706C43.1504 11.1987 44.4108 10.8455 44.6353 10.7535C46.1967 10.1165 47.7276 9.14785 48.9267 7.46877C49.5237 6.62923 49.6614 5.72396 49.7839 4.59453ZM50.7841 11.1686C51.3862 13.0595 52.2842 14.6513 53.5344 15.6539C54.0498 16.0706 54.6111 16.3868 55.1928 16.6326C53.9936 17.8973 52.8812 19.3352 51.9985 20.6679C51.7127 21.1016 51.4015 21.8036 51.0698 22.5743C50.682 20.5164 50.1105 18.6681 49.1716 16.9766C48.6154 15.9794 47.9878 15.0679 47.2887 14.308C48.5542 13.5489 49.7533 12.5331 50.7841 11.1686Z" fill="#35312B"/>
<path fill-rule="evenodd" clip-rule="evenodd" d="M17.8874 70.2822C29.5011 70.7074 41.37 69.8493 52.4734 75.8637C53.2694 76.2966 54.1471 75.6627 54.4328 74.4645C54.7186 73.2585 54.3002 71.9288 53.5042 71.4959C42.0895 65.3115 29.8991 66.0768 17.9639 65.6439C17.1169 65.6129 16.4178 66.6257 16.3974 67.9012C16.377 69.1845 17.0454 70.2436 17.8874 70.2822Z" fill="#35312B"/>
<path fill-rule="evenodd" clip-rule="evenodd" d="M17.0249 44.5788C20.6223 39.5655 24.5461 35.8061 29.2916 33.9445C30.108 33.6237 30.5979 32.3574 30.3887 31.1182C30.1744 29.879 29.3427 29.1338 28.5212 29.4546C23.2756 31.5117 18.9281 35.6244 14.9532 41.1642C14.3307 42.0308 14.2899 43.4988 14.8614 44.4411C15.4329 45.3835 16.4024 45.4454 17.0249 44.5788Z" fill="#35312B"/>
<path fill-rule="evenodd" clip-rule="evenodd" d="M3.00004 27.0893C4.64821 18.5431 7.88845 11.857 12.8534 7.02923C13.5626 6.33812 13.7718 4.90176 13.3126 3.82489C12.8584 2.74725 11.9093 2.43416 11.2 3.12605C5.58708 8.58152 1.92337 16.132 0.0608892 25.7898C-0.173835 27.0182 0.29053 28.3069 1.10186 28.6656C1.91319 29.0243 2.76532 28.3177 3.00004 27.0893Z" fill="#35312B"/>
</svg>
